<svg xmlns="http://www.w3.org/2000/svg" xmlns:xlink="http://www.w3.org/1999/xlink" id="Layer_1" data-name="Layer 1" viewBox="0 0 500 500"><defs><style>      .cls-1 {        fill: url(#linear-gradient-2);      }      .cls-2 {        fill: #b1721c;      }      .cls-3 {        fill: url(#linear-gradient-5);      }      .cls-4 {        fill: #6ed34d;      }      .cls-5 {        fill: url(#linear-gradient-3);      }      .cls-6 {        fill: url(#linear-gradient);      }      .cls-7 {        fill: url(#linear-gradient-4);      }    </style><linearGradient id="linear-gradient" x1="221.61" y1="357.14" x2="302.98" y2="357.14" gradientUnits="userSpaceOnUse"><stop offset="0" stop-color="#c1811c"></stop><stop offset=".08" stop-color="#c48521"></stop><stop offset=".17" stop-color="#cd9131"></stop><stop offset=".28" stop-color="#dda64c"></stop><stop offset=".31" stop-color="#e2ac54"></stop><stop offset=".39" stop-color="#e7b75f"></stop><stop offset=".55" stop-color="#f5d57e"></stop><stop offset=".62" stop-color="#fde48e"></stop><stop offset="1" stop-color="#f2ca52"></stop></linearGradient><linearGradient id="linear-gradient-2" x1="221.47" y1="237.75" x2="302.84" y2="237.75" xlink:href="#linear-gradient"></linearGradient><linearGradient id="linear-gradient-3" x1="221.33" y1="117.52" x2="302.7" y2="117.52" xlink:href="#linear-gradient"></linearGradient><linearGradient id="linear-gradient-4" x1="148.66" y1="400.76" x2="230.03" y2="400.76" xlink:href="#linear-gradient"></linearGradient><linearGradient id="linear-gradient-5" x1="148.52" y1="281.38" x2="229.89" y2="281.38" xlink:href="#linear-gradient"></linearGradient></defs><g><path class="cls-6" d="m287.25,294.58h-61.22s4.98,29.39,4.98,61.78-4.91,45.66-4.91,45.66c0,4.52,2.99,9.03,8.97,12.49,11.95,6.9,31.32,6.9,43.29,0,5.96-3.46,8.96-7.97,8.96-12.49,0,0-5.19-18.27-5.19-44.79s5.12-62.65,5.12-62.65Z"></path><path class="cls-2" d="m278.22,281.48c-11.96-6.91-31.34-6.91-43.29,0-11.96,6.89-11.96,18.09,0,24.99,11.95,6.9,31.32,6.9,43.29,0,11.95-6.9,11.95-18.09,0-24.99Z"></path></g><g><path class="cls-1" d="m287.11,170.6h-61.22s4.98,26.86,4.98,59.25-4.91,57.38-4.91,57.38c0,4.52,2.99,9.03,8.97,12.49,11.95,6.9,31.32,6.9,43.29,0,5.96-3.46,8.96-7.97,8.96-12.49,0,0-5.19-29.98-5.19-56.51s5.12-60.13,5.12-60.13Z"></path><path class="cls-2" d="m278.08,157.5c-11.96-6.91-31.34-6.91-43.29,0-11.96,6.89-11.96,18.09,0,24.99,11.95,6.9,31.32,6.9,43.29,0,11.95-6.9,11.95-18.09,0-24.99Z"></path></g><g><path class="cls-5" d="m286.97,54.97h-61.22s4.98,20.2,4.98,52.59-4.91,54.85-4.91,54.85c0,4.52,2.99,9.03,8.97,12.49,11.95,6.89,31.32,6.89,43.29,0,5.96-3.46,8.96-7.97,8.96-12.49,0,0-5.19-27.46-5.19-53.98s5.12-53.46,5.12-53.46Z"></path><path class="cls-2" d="m277.94,41.86c-11.96-6.91-31.34-6.91-43.29,0-11.96,6.89-11.96,18.08,0,24.99,11.95,6.9,31.32,6.9,43.29,0,11.95-6.9,11.95-18.09,0-24.99Z"></path></g><g><path class="cls-7" d="m214.3,338.21h-61.22s4.98,20.2,4.98,52.59-4.91,54.85-4.91,54.85c0,4.52,2.99,9.03,8.97,12.49,11.95,6.89,31.32,6.89,43.29,0,5.96-3.46,8.96-7.97,8.96-12.49,0,0-5.19-27.46-5.19-53.98s5.12-53.46,5.12-53.46Z"></path><path class="cls-2" d="m205.27,325.1c-11.96-6.91-31.34-6.91-43.29,0-11.96,6.89-11.96,18.08,0,24.99,11.95,6.9,31.32,6.9,43.29,0,11.95-6.9,11.95-18.09,0-24.99Z"></path></g><g><path class="cls-3" d="m214.16,214.23h-61.22s4.98,26.86,4.98,59.25-4.91,57.38-4.91,57.38c0,4.52,2.99,9.03,8.97,12.49,11.95,6.9,31.32,6.9,43.29,0,5.96-3.46,8.96-7.97,8.96-12.49,0,0-5.19-29.98-5.19-56.51s5.12-60.13,5.12-60.13Z"></path><path class="cls-2" d="m205.13,201.12c-11.96-6.91-31.34-6.91-43.29,0-11.96,6.89-11.96,18.08,0,24.99,11.95,6.9,31.32,6.9,43.29,0,11.95-6.9,11.95-18.09,0-24.99Z"></path></g><path class="cls-4" d="m201.22,122.59s-4.68,43.02,26.65,49.88c0,0,1.08-42.17-26.65-49.88Z"></path><path class="cls-4" d="m168.24,187.61s22.35,18.54,59.52-12.37c0,0-25.58-14.47-59.52,12.37Z"></path><path class="cls-4" d="m212.47,338.95s35.89,23.95,57.74,5.72c0,0-34.65-27.34-57.74-5.72Z"></path><path class="cls-4" d="m210.14,337.35s26.52-12.8,21.87-54.97c0,0-28.27,7.95-21.87,54.97Z"></path><path class="cls-4" d="m283.53,292.06s48.25-16.28,63.6-53.06c0,0-48.06,11.95-63.6,53.06Z"></path></svg>