<svg xmlns="http://www.w3.org/2000/svg" width="167" height="43" viewBox="0 0 167 43" fill="none"><rect x="0.361328" y="0.684143" width="166.02" height="42" rx="9" fill="black"></rect><path d="M20.2712 18.8406L38.4028 16.5639L38.7245 18.6363L20.5929 20.9131L20.2712 18.8406ZM31.7059 10.4633L33.3143 9.41253C35.069 10.8136 37.1453 12.7985 38.1396 14.1412L36.4435 15.3087C35.5076 13.9952 33.4313 11.9228 31.7059 10.4633ZM19.9496 9.12064L22.0259 9.79199C19.8326 14.9001 16.3525 19.9206 12.6969 23.1898C12.463 22.6644 11.8196 21.5552 11.4102 21.059C14.8025 18.2277 18.0194 13.7325 19.9496 9.12064ZM16.6449 16.885L18.8675 14.6958V35.6244H16.6449V16.885ZM26.822 9.23739H29.0446C29.454 22.3433 31.4719 32.6471 35.8878 33.0558C36.7067 33.1142 37.2038 31.392 37.4963 27.9769C37.9349 28.4147 38.9 28.9693 39.3094 29.1444C38.6953 34.2233 37.4963 35.712 35.9756 35.6536C29.3955 35.1866 27.4654 24.1531 26.822 9.23739Z" fill="#AE282D"></path><path d="M53.4638 12.2439H55.7156V35.6244H53.4638V12.2439ZM44.4565 17.7606H63.9333V19.8914H46.679V32.2677H44.4565V17.7606ZM62.822 17.7606H65.0738V29.2612C65.0738 30.5163 64.8106 31.1877 63.8456 31.5379C62.8805 31.9174 61.3013 31.9466 58.9325 31.9466C58.8448 31.3044 58.4938 30.3704 58.1721 29.7282C60.0438 29.7866 61.6815 29.7866 62.1786 29.7574C62.6758 29.7282 62.822 29.6114 62.822 29.2028V17.7606ZM66.0682 9.64604L66.9455 11.6309C60.7457 12.6817 50.744 13.2655 42.6725 13.3823C42.6433 12.7693 42.3801 11.9228 42.1754 11.4266C50.3054 11.2223 60.307 10.6385 66.0682 9.64604Z" fill="#AE282D"></path><path d="M71.186 28.006C71.069 27.5682 70.718 26.4882 70.4548 25.9044C71.1275 25.7877 71.8293 25.0579 72.7944 24.0071C73.818 22.9563 77.0641 18.899 79.2282 14.9293L81.1583 16.126C78.6725 20.125 75.6604 24.0363 72.7359 26.8093V26.8969C72.7359 26.8969 71.186 27.5682 71.186 28.006ZM71.186 28.006L71.069 26.1671L72.1803 25.4082L80.398 23.9196C80.3102 24.5325 80.3102 25.4082 80.3395 25.846C72.8529 27.3639 71.8293 27.6558 71.186 28.006ZM70.9812 21.0006C70.8643 20.5336 70.5133 19.4536 70.2501 18.8698C70.8058 18.7531 71.3614 18.0817 71.9756 17.0893C72.6774 16.126 74.9 12.3314 76.1283 8.79956L78.2339 9.7628C76.6254 13.4114 74.4613 17.1477 72.3265 19.7747V19.8623C72.3265 19.8623 70.9812 20.5336 70.9812 21.0006ZM70.9812 21.0006L70.952 19.3369L72.034 18.6363L77.8829 18.0233C77.766 18.6071 77.7075 19.4244 77.6782 19.8623C72.3557 20.5628 71.5076 20.7379 70.9812 21.0006ZM70.4548 31.6547C72.9406 31.1585 76.6254 30.2536 80.281 29.3779L80.515 31.3336C77.1226 32.2385 73.5548 33.1433 70.8935 33.8439L70.4548 31.6547ZM81.6847 10.3758H93.6165V12.3898H81.6847V10.3758ZM92.9731 10.3758H93.4118L93.8505 10.259L95.4004 11.0763C92.6807 16.6514 86.744 20.5336 81.0706 22.6352C80.7782 22.0806 80.1933 21.2342 79.7546 20.7963C84.9894 19.045 90.692 15.3087 92.9731 10.7552V10.3758ZM80.164 32.8223H97.4183V34.8655H80.164V32.8223ZM87.7091 24.9704H89.9024V33.5812H87.7091V24.9704ZM81.9187 23.6277H96.0145V25.6709H81.9187V23.6277ZM87.7676 18.1985L88.9666 16.6514C91.8326 17.7606 95.6344 19.5704 97.5645 20.7963L96.307 22.606C94.4353 21.3217 90.6628 19.4244 87.7676 18.1985Z" fill="#AE282D"></path><path d="M107.654 12.1855H126.341V14.1412H107.654V12.1855ZM114.351 9.29577L116.339 8.74118C117.1 9.93793 117.831 11.6017 118.094 12.6525L116.018 13.3239C115.755 12.2731 115.023 10.5509 114.351 9.29577ZM120.697 13.0028L122.92 13.3823C120.902 19.9498 115.55 22.7228 108.005 24.1823C107.829 23.686 107.332 22.7228 106.981 22.2558C114.117 21.1758 119.118 18.7531 120.697 13.0028ZM120.083 23.7152H122.218V35.3325H120.083V23.7152ZM111.456 23.7444H113.591V26.8093C113.591 29.6406 112.713 33.1142 107.712 35.3325C107.332 34.9239 106.601 34.2817 106.104 33.9606C110.754 31.9466 111.456 28.9985 111.456 26.7801V23.7444ZM112.567 13.2655C114.702 18.3444 119.615 21.059 127.043 21.8763C126.575 22.3433 126.019 23.2482 125.727 23.8612C118.065 22.7228 113.152 19.6871 110.666 13.7617L112.567 13.2655ZM101.132 10.7844L102.565 9.35415C104.086 10.259 106.104 11.6017 107.098 12.5066L105.636 14.1412C104.671 13.1779 102.712 11.7477 101.132 10.7844ZM99.6994 18.4612L101.132 17.0601C102.682 17.9358 104.729 19.3369 105.753 20.3001L104.291 21.9055C103.326 20.9131 101.308 19.4828 99.6994 18.4612ZM100.372 33.7563C101.629 31.5087 103.472 27.7433 104.788 24.4742L106.513 25.8169C105.314 28.8525 103.706 32.4428 102.302 35.1282L100.372 33.7563Z" fill="#AE282D"></path><path d="M134.471 18.6655H148.947V20.592H134.471V18.6655ZM129.558 25.3206H155.41V27.3639H129.558V25.3206ZM141.314 23.1898H143.566V33.0558C143.566 34.3693 143.215 35.0114 142.104 35.3325C141.051 35.6536 139.355 35.6828 136.694 35.6828C136.547 35.0698 136.109 34.165 135.758 33.5812C138.01 33.6396 139.998 33.6396 140.583 33.6104C141.168 33.5812 141.314 33.4352 141.314 32.9974V23.1898ZM148.275 18.6655H148.83L149.298 18.5487L150.702 19.6287C148.713 21.6428 145.642 23.6569 142.864 24.8536C142.601 24.4742 142.016 23.8904 141.636 23.5693C144.093 22.5185 146.9 20.592 148.275 19.1033V18.6655ZM130.143 13.6742H154.913V20.1833H152.749V15.659H132.219V20.1833H130.143V13.6742ZM151.053 9.00388L153.334 9.7628C152.106 11.5725 150.526 13.5282 149.298 14.8125L147.573 14.0828C148.742 12.7109 150.234 10.5509 151.053 9.00388ZM132.132 10.0255L133.974 9.14983C135.114 10.3758 136.313 12.0396 136.811 13.2071L134.851 14.1412C134.383 13.032 133.214 11.2806 132.132 10.0255ZM139.647 9.38334L141.548 8.6828C142.543 10.0547 143.595 11.952 143.946 13.1779L141.928 13.966C141.578 12.7401 140.612 10.8136 139.647 9.38334Z" fill="#AE282D"></path></svg>