<svg xmlns="http://www.w3.org/2000/svg" width="83" height="42" viewBox="0 0 83 42" fill="none"><rect width="82.5" height="42" rx="9" fill="black"></rect><path d="M50.0765 26.2158H52.1974V30.9448C52.1974 31.69 52.4553 31.8333 54.003 31.8333C54.6909 31.8333 58.3021 31.8333 59.2479 31.8333C60.4804 31.8333 60.681 31.4894 60.7956 29.0532C61.2829 29.3972 62.1713 29.7124 62.7446 29.8271C62.458 33.0084 61.8274 33.7823 59.4486 33.7823C58.7894 33.7823 54.4616 33.7823 53.8311 33.7823C50.8217 33.7823 50.0765 33.1804 50.0765 30.9735V26.2158ZM53.0286 25.2127L54.6049 24.0949C56.2959 25.2127 58.1875 26.875 59.0473 28.1648L57.3563 29.3685C56.5538 28.1074 54.6909 26.3591 53.0286 25.2127ZM62.286 26.7604L64.0056 25.6999C66.0692 27.4482 68.3334 29.9417 69.2506 31.776L67.4163 32.9798C66.5278 31.1741 64.3782 28.5947 62.286 26.7604ZM46.15 25.9865L48.0416 26.6744C47.3251 28.9099 46.2073 31.4321 44.3157 32.9798L42.5674 31.7473C44.3157 30.3716 45.5194 28.0788 46.15 25.9865ZM49.274 15.6113V17.9902H62.6872V15.6113H49.274ZM49.274 19.6525V22.0313H62.6872V19.6525H49.274ZM49.274 11.6275V13.9777H62.6872V11.6275H49.274ZM47.2104 9.90785H64.8368V23.7797H47.2104V9.90785ZM54.8342 7.27106L57.3277 7.70097C56.7545 8.93338 56.0666 10.0798 55.5794 10.911L53.6591 10.4524C54.089 9.53526 54.5762 8.1882 54.8342 7.27106Z" fill="#AE282D"></path><path d="M24.425 8.93341H37.695V10.6817H24.425V8.93341ZM24.0811 16.8724H38.2108V18.6494H24.0811V16.8724ZM24.0811 20.8563H38.1535V22.6333H24.0811V20.8563ZM24.9123 30.8016H37.351V32.5785H24.9123V30.8016ZM21.7309 12.8886H40.3891V14.6942H21.7309V12.8886ZM23.7945 24.8401H38.4688V33.8396H36.3192V26.5884H25.8581V33.9256H23.7945V24.8401ZM20.7564 7.64368L22.7914 8.27421C20.8424 13.1179 17.7757 17.9329 14.5944 21.1142C14.3938 20.627 13.7919 19.5092 13.3906 18.9933C16.2854 16.2706 19.0941 12.0001 20.7564 7.64368ZM17.7757 15.0382L19.8106 13.0032L19.8393 13.0319V33.8683H17.7757V15.0382Z" fill="#AE282D"></path></svg>